<svg width="800" height="600" xmlns="http://www.w3.org/2000/svg" xmlns:svg="http://www.w3.org/2000/svg" xmlns:xlink="http://www.w3.org/1999/xlink"><g transform="translate(128,463.5)"><line x1="0" x2="10.6325810485578" y1="-390" y2="-378.068325852541" style="stroke:#3333ff; stroke-width: 1.5" /><line x1="10.6325810485578" x2="21.2196766271057" y1="-378.068325852541" y2="-344.245483753589" style="stroke:#3333ff; stroke-width: 1.5" /><line x1="21.2196766271057" x2="30.9688556667194" y1="-344.245483753589" y2="-297.845330668159" style="stroke:#3333ff; stroke-width: 1.5" /><line x1="30.9688556667194" x2="39.9224262339024" y1="-297.845330668159" y2="-246.934258388034" style="stroke:#3333ff; stroke-width: 1.5" /><line x1="39.9224262339024" x2="48.8472686733719" y1="-246.934258388034" y2="-192.84165865084" style="stroke:#3333ff; stroke-width: 1.5" /><line x1="48.8472686733719" x2="58.0926874906622" y1="-192.84165865084" y2="-137.865145924553" style="stroke:#3333ff; stroke-width: 1.5" /><line x1="58.0926874906622" x2="67.9224055523353" y1="-137.865145924553" y2="-85.278951715011" style="stroke:#3333ff; stroke-width: 1.5" /><line x1="67.9224055523353" x2="78.0342093491668" y1="-85.278951715011" y2="-41.7727823003897" style="stroke:#3333ff; stroke-width: 1.5" /><line x1="78.0342093491668" x2="87.5403849145607" y1="-41.7727823003897" y2="-13.6392608530612" style="stroke:#3333ff; stroke-width: 1.5" /><line x1="87.5403849145607" x2="96.6631400849558" y1="-13.6392608530612" y2="-0" style="stroke:#3333ff; stroke-width: 1.5" /><line x1="96.6631400849558" x2="105.575976982665" y1="-0" y2="-0.0738933823600413" style="stroke:#3333ff; stroke-width: 1.5" /><line x1="105.575976982665" x2="115.571092381803" y1="-0.0738933823600413" y2="-15.6992235194561" style="stroke:#3333ff; stroke-width: 1.5" /><line x1="115.571092381803" x2="126.534400417765" y1="-15.6992235194561" y2="-49.4033362766092" style="stroke:#3333ff; stroke-width: 1.5" /><line x1="126.534400417765" x2="136.638719112672" y1="-49.4033362766092" y2="-91.7882901439637" style="stroke:#3333ff; stroke-width: 1.5" /><line x1="136.638719112672" x2="146.161365412475" y1="-91.7882901439637" y2="-137.253152386434" style="stroke:#3333ff; stroke-width: 1.5" /><line x1="146.161365412475" x2="155.731323238698" y1="-137.253152386434" y2="-183.968286165069" style="stroke:#3333ff; stroke-width: 1.5" /><line x1="155.731323238698" x2="165.675998687229" y1="-183.968286165069" y2="-229.253772676073" style="stroke:#3333ff; stroke-width: 1.5" /><line x1="165.675998687229" x2="176.265601567621" y1="-229.253772676073" y2="-269.502202966665" style="stroke:#3333ff; stroke-width: 1.5" /><line x1="176.265601567621" x2="186.667368517912" y1="-269.502202966665" y2="-297.576061011021" style="stroke:#3333ff; stroke-width: 1.5" /><line x1="186.667368517912" x2="196.506504746833" y1="-297.576061011021" y2="-311.553573058918" style="stroke:#3333ff; stroke-width: 1.5" /><line x1="196.506504746833" x2="204.386981880227" y1="-311.553573058918" y2="-313.205197518049" style="stroke:#3333ff; stroke-width: 1.5" /><line x1="204.386981880227" x2="211.209177513801" y1="-313.205197518049" y2="-307.707828871195" style="stroke:#3333ff; stroke-width: 1.5" /><line x1="211.209177513801" x2="222.310087274584" y1="-307.707828871195" y2="-285.970777487075" style="stroke:#3333ff; stroke-width: 1.5" /><line x1="222.310087274584" x2="233.792232098761" y1="-285.970777487075" y2="-249.941116881254" style="stroke:#3333ff; stroke-width: 1.5" /><line x1="233.792232098761" x2="244.071356951208" y1="-249.941116881254" y2="-210.265759644122" style="stroke:#3333ff; stroke-width: 1.5" /><line x1="244.071356951208" x2="254.072227391284" y1="-210.265759644122" y2="-169.256195414975" style="stroke:#3333ff; stroke-width: 1.5" /><line x1="254.072227391284" x2="264.276682237336" y1="-169.256195414975" y2="-129.147450311693" style="stroke:#3333ff; stroke-width: 1.5" /><line x1="264.276682237336" x2="274.986131851852" y1="-129.147450311693" y2="-93.0383965720766" style="stroke:#3333ff; stroke-width: 1.5" /><line x1="274.986131851852" x2="286.213778075964" y1="-93.0383965720766" y2="-65.5042307132907" style="stroke:#3333ff; stroke-width: 1.5" /><line x1="286.213778075964" x2="296.697568927823" y1="-65.5042307132907" y2="-51.7517228358755" style="stroke:#3333ff; stroke-width: 1.5" /><line x1="296.697568927823" x2="304.938348224873" y1="-51.7517228358755" y2="-49.8787487720809" style="stroke:#3333ff; stroke-width: 1.5" /><line x1="304.938348224873" x2="312.575770225545" y1="-49.8787487720809" y2="-55.2734904229703" style="stroke:#3333ff; stroke-width: 1.5" /><line x1="312.575770225545" x2="323.944865743719" y1="-55.2734904229703" y2="-75.09072152659" style="stroke:#3333ff; stroke-width: 1.5" /><line x1="323.944865743719" x2="335.695150493168" y1="-75.09072152659" y2="-107.458910116045" style="stroke:#3333ff; stroke-width: 1.5" /><line x1="335.695150493168" x2="346.447417168439" y1="-107.458910116045" y2="-143.583336278992" style="stroke:#3333ff; stroke-width: 1.5" /><line x1="346.447417168439" x2="356.887153645455" y1="-143.583336278992" y2="-180.42472950787" style="stroke:#3333ff; stroke-width: 1.5" /><line x1="356.887153645455" x2="367.518215485717" y1="-180.42472950787" y2="-215.690186789588" style="stroke:#3333ff; stroke-width: 1.5" /><line x1="367.518215485717" x2="378.662831679484" y1="-215.690186789588" y2="-246.325060414233" style="stroke:#3333ff; stroke-width: 1.5" /><line x1="378.662831679484" x2="390.230877101054" y1="-246.325060414233" y2="-267.868491196754" style="stroke:#3333ff; stroke-width: 1.5" /><line x1="390.230877101054" x2="401.049487533375" y1="-267.868491196754" y2="-276.503853209276" style="stroke:#3333ff; stroke-width: 1.5" /><line x1="401.049487533375" x2="411.469360175109" y1="-276.503853209276" y2="-273.513115038373" style="stroke:#3333ff; stroke-width: 1.5" /><line x1="411.469360175109" x2="423.379210618599" y1="-273.513115038373" y2="-257.091611527929" style="stroke:#3333ff; stroke-width: 1.5" /><line x1="423.379210618599" x2="435.263380940689" y1="-257.091611527929" y2="-229.431346876515" style="stroke:#3333ff; stroke-width: 1.5" /><line x1="435.263380940689" x2="446.572794449746" y1="-229.431346876515" y2="-196.486148548889" style="stroke:#3333ff; stroke-width: 1.5" /><line x1="446.572794449746" x2="457.413737377647" y1="-196.486148548889" y2="-162.897210671705" style="stroke:#3333ff; stroke-width: 1.5" /><line x1="457.413737377647" x2="468.365665529377" y1="-162.897210671705" y2="-130.913261780233" style="stroke:#3333ff; stroke-width: 1.5" /><line x1="468.365665529377" x2="479.787189892264" y1="-130.913261780233" y2="-103.404754651172" style="stroke:#3333ff; stroke-width: 1.5" /><line x1="479.787189892264" x2="491.837441931691" y1="-103.404754651172" y2="-84.2085784508283" style="stroke:#3333ff; stroke-width: 1.5" /><line x1="491.837441931691" x2="503.056658986881" y1="-84.2085784508283" y2="-77.4067476118563" style="stroke:#3333ff; stroke-width: 1.5" /><line x1="503.056658986881" x2="513.845316846311" y1="-77.4067476118563" y2="-81.6183364067398" style="stroke:#3333ff; stroke-width: 1.5" /><line x1="513.845316846311" x2="526.341682079539" y1="-81.6183364067398" y2="-98.8547717535235" style="stroke:#3333ff; stroke-width: 1.5" /><line x1="526.341682079539" x2="538.568515784043" y1="-98.8547717535235" y2="-125.796253695963" style="stroke:#3333ff; stroke-width: 1.5" /><line x1="538.568515784043" x2="550.132808912727" y1="-125.796253695963" y2="-156.600025032393" style="stroke:#3333ff; stroke-width: 1.5" /><line x1="550.132808912727" x2="561.311793551036" y1="-156.600025032393" y2="-187.334321112211" style="stroke:#3333ff; stroke-width: 1.5" /><line x1="561.311793551036" x2="572.660628533369" y1="-187.334321112211" y2="-215.69060896743" style="stroke:#3333ff; stroke-width: 1.5" /><line x1="572.660628533369" x2="584.549673420179" y1="-215.69060896743" y2="-238.752448878421" style="stroke:#3333ff; stroke-width: 1.5" /><line x1="584.549673420179" x2="596.694448361459" y1="-238.752448878421" y2="-252.425331577783" style="stroke:#3333ff; stroke-width: 1.5" /><line x1="596.694448361459" x2="608.095541132771" y1="-252.425331577783" y2="-254.664498464897" style="stroke:#3333ff; stroke-width: 1.5" /><line x1="608.095541132771" x2="617.746220982471" y1="-254.664498464897" y2="-248.339518733703" style="stroke:#3333ff; stroke-width: 1.5" /><line x1="617.746220982471" x2="629.9141689473" y1="-248.339518733703" y2="-230.710746437748" style="stroke:#3333ff; stroke-width: 1.5" /><line x1="629.9141689473" x2="640" y1="-230.710746437748" y2="-209.813606733142" style="stroke:#3333ff; stroke-width: 1.5" /><line y1="-5.25" y2="5.25" x1="0" x2="0" style="stroke:black; stroke-width: 1" /><text y="33.75" x="0" font-size="12" text-anchor="middle" dominant-baseline="middle">0</text><line y1="-5.25" y2="5.25" x1="160" x2="160" style="stroke:black; stroke-width: 1" /><text y="33.75" x="160" font-size="12" text-anchor="middle" dominant-baseline="middle">5</text><line y1="-5.25" y2="5.25" x1="320" x2="320" style="stroke:black; stroke-width: 1" /><text y="33.75" x="320" font-size="12" text-anchor="middle" dominant-baseline="middle">10</text><line y1="-5.25" y2="5.25" x1="480" x2="480" style="stroke:black; stroke-width: 1" /><text y="33.75" x="480" font-size="12" text-anchor="middle" dominant-baseline="middle">15</text><line y1="-5.25" y2="5.25" x1="640" x2="640" style="stroke:black; stroke-width: 1" /><text y="33.75" x="640" font-size="12" text-anchor="middle" dominant-baseline="middle">20</text><line x1="-5.25" x2="5.25" y1="-61.5521395348851" y2="-61.5521395348851" style="stroke:black; stroke-width: 1" /><text x="-15.75" y="-61.5521395348851" font-size="12" text-anchor="end" dominant-baseline="middle">-0.5</text><line x1="-5.25" x2="5.25" y1="-171.034759689923" y2="-171.034759689923" style="stroke:black; stroke-width: 1" /><text x="-15.75" y="-171.034759689923" font-size="12" text-anchor="end" dominant-baseline="middle">0</text><line x1="-5.25" x2="5.25" y1="-280.517379844962" y2="-280.517379844962" style="stroke:black; stroke-width: 1" /><text x="-15.75" y="-280.517379844962" font-size="12" text-anchor="end" dominant-baseline="middle">0.5</text><line x1="-5.25" x2="5.25" y1="-390" y2="-390" style="stroke:black; stroke-width: 1" /><text x="-15.75" y="-390" font-size="12" text-anchor="end" dominant-baseline="middle">1</text><line x1="0" y1="0" x2="640" y2="0" style="stroke:black; stroke-width: 2" /><line x1="0" y1="0" x2="0" y2="-390" style="stroke:black; stroke-width: 2" /><text x="400" y="-411" text-anchor="middle">Spring with damping</text></g></svg>
