<svg width="400" height="300" xmlns="http://www.w3.org/2000/svg" xmlns:svg="http://www.w3.org/2000/svg" xmlns:xlink="http://www.w3.org/1999/xlink"><g transform="translate(40,78.75)"><g stroke="black" fill="#3333ff"><path d="M 160 97.5 l 68.25 0 A 68.25 68.25 0 0 1 227.659351908082 106.459609331793 z" /></g><line style="stroke: grey; stroke-width: 1.2" x1="234.912395683055" y1="102.438481348088" x2="251.937940156476" y2="103.560863472654" /><text x="262.153266840529" y="104.234292747393" text-anchor="start" dominant-baseline="cenral">putter</text><g stroke="black" fill="#ffdd66"><path d="M 160 97.5 l 67.6593519080818 8.95960933179269 A 68.25 68.25 0 0 1 225.848998196365 115.44357647001 z" /></g><line style="stroke: grey; stroke-width: 1.2" x1="233.595654368845" y1="112.330215204827" x2="270.393481553268" y2="119.74532280724" /><text x="280.429252603565" y="121.767624880625" text-anchor="start" dominant-baseline="cenral">agentz</text><g stroke="black" fill="#aa2222"><path d="M 160 97.5 l 65.8489981963652 17.9435764700098 A 68.25 68.25 0 0 1 222.754290594833 124.332098537745 z" /></g><line style="stroke: grey; stroke-width: 1.2" x1="230.900550371767" y1="122.185371821801" x2="247.014311819896" y2="127.795683599483" /><text x="256.682568688773" y="131.161870666092" text-anchor="start" dominant-baseline="cenral">corion</text><g stroke="black" fill="#228844"><path d="M 160 97.5 l 62.7542905948329 26.8320985377451 A 68.25 68.25 0 0 1 214.738054263866 138.265278306495 z" /></g><line style="stroke: grey; stroke-width: 1.2" x1="225.073587892142" y1="134.939067614508" x2="257.610381838213" y2="153.658601421762" /><text x="266.484052914414" y="158.76392882374" text-anchor="start" dominant-baseline="bottom">pmichaud</text><g stroke="black" fill="#eebb00"><path d="M 160 97.5 l 54.7380542638663 40.7652783064955 A 68.25 68.25 0 0 1 203.159473444967 150.370808126537 z" /></g><line style="stroke: grey; stroke-width: 1.2" x1="214.253728992366" y1="149.3920852869" x2="226.584121945176" y2="161.185741033923" /><text x="233.982357716862" y="168.261934482137" text-anchor="start" dominant-baseline="bottom">kyle</text><g stroke="black" fill="#8822bb"><path d="M 160 97.5 l 43.1594734449675 52.8708081265375 A 68.25 68.25 0 0 1 187.230409074448 160.082484144034 z" /></g><line style="stroke: grey; stroke-width: 1.2" x1="199.081175701099" y1="161.600837208416" x2="218.621763551649" y2="193.651255812624" /><text x="223.951014783617" y="202.392279068317" text-anchor="start" dominant-baseline="bottom">jnthn</text><g stroke="black" fill="#3333ff"><path d="M 160 97.5 l 27.2304090744479 62.5824841440337 A 68.25 68.25 0 0 1 168.898172663504 165.167459116258 z" /></g><line style="stroke: grey; stroke-width: 1.2" x1="180.066570338037" y1="169.843544147827" x2="184.627154505772" y2="186.285258726879" /><text x="187.363505006414" y="196.15028747431" text-anchor="middle" dominant-baseline="bottom">lwall</text><g stroke="black" fill="#ffdd66"><path d="M 160 97.5 l 8.89817266350431 67.6674591162581 A 68.25 68.25 0 0 1 135.522104129356 161.209458589333 z" /></g><line style="stroke: grey; stroke-width: 1.2" x1="151.15895668639" y1="172.052609465577" x2="146.738435029585" y2="209.328914198366" /><text x="145.532838214093" y="219.49517912549" text-anchor="middle" dominant-baseline="bottom">iblech</text><g stroke="black" fill="#aa2222"><path d="M 160 97.5 l -24.4778958706439 63.7094585893328 A 68.25 68.25 0 0 1 96.4248380360139 122.324610394786 z" /></g><line style="stroke: grey; stroke-width: 1.2" x1="107.058757523313" y1="150.730446832848" x2="95.02665696043" y2="162.828275658495" /><text x="87.8073966227" y="170.086972953884" text-anchor="end" dominant-baseline="bottom">audreyt</text><g stroke="black" fill="#228844"><path d="M 160 97.5 l -63.5751619639861 24.8246103947864 A 68.25 68.25 0 0 1 123.106003595557 40.0814008416355 z" /></g><line style="stroke: grey; stroke-width: 1.2" x1="88.5889071396372" y1="74.3329664935573" x2="52.8833607094558" y2="62.7494497403359" /><text x="43.1454844103154" y="59.5903088076391" text-anchor="end" dominant-baseline="cenral">moritz</text><g stroke="black" fill="#eebb00"><path d="M 160 97.5 l -36.8939964044431 -57.4185991583645 A 68.25 68.25 0 0 1 228.25 97.5 z" /></g><line style="stroke: grey; stroke-width: 1.2" x1="195.982337103988" y1="31.6097348500178" x2="204.160140991258" y2="16.6346745886582" /><text x="209.06682332362" y="7.64963843184243" text-anchor="start" dominant-baseline="top">Rest</text><text x="160" y="-52.5" text-anchor="middle" font-size="150%">Test suite committers</text></g><rect x="0" h="0" height="300" width="400" style="fill: none; stroke: black; stroke-width: 2" /></svg>
