<svg width="300" height="200" xmlns="http://www.w3.org/2000/svg" xmlns:svg="http://www.w3.org/2000/svg" xmlns:xlink="http://www.w3.org/1999/xlink"><g transform="translate(48,154.5)"><line x1="0" x2="12" y1="0" y2="-28.3218139978605" style="stroke:#3333ff; stroke-width: 1.5" /><line x1="12" x2="24" y1="-28.3218139978605" y2="-53.2428279957211" style="stroke:#3333ff; stroke-width: 1.5" /><line x1="24" x2="36" y1="-53.2428279957211" y2="-74.7630419935816" style="stroke:#3333ff; stroke-width: 1.5" /><line x1="36" x2="48" y1="-74.7630419935816" y2="-92.8824559914421" style="stroke:#3333ff; stroke-width: 1.5" /><line x1="48" x2="60" y1="-92.8824559914421" y2="-107.601069989303" style="stroke:#3333ff; stroke-width: 1.5" /><line x1="60" x2="72" y1="-107.601069989303" y2="-118.918883987163" style="stroke:#3333ff; stroke-width: 1.5" /><line x1="72" x2="84" y1="-118.918883987163" y2="-126.835897985024" style="stroke:#3333ff; stroke-width: 1.5" /><line x1="84" x2="96" y1="-126.835897985024" y2="-131.352111982884" style="stroke:#3333ff; stroke-width: 1.5" /><line x1="96" x2="108" y1="-131.352111982884" y2="-132.467525980745" style="stroke:#3333ff; stroke-width: 1.5" /><line x1="108" x2="120" y1="-132.467525980745" y2="-130.182139978605" style="stroke:#3333ff; stroke-width: 1.5" /><line x1="120" x2="132" y1="-130.182139978605" y2="-124.495953976466" style="stroke:#3333ff; stroke-width: 1.5" /><line x1="132" x2="144" y1="-124.495953976466" y2="-115.408967974326" style="stroke:#3333ff; stroke-width: 1.5" /><line x1="144" x2="156" y1="-115.408967974326" y2="-102.921181972187" style="stroke:#3333ff; stroke-width: 1.5" /><line x1="156" x2="168" y1="-102.921181972187" y2="-87.0325959700475" style="stroke:#3333ff; stroke-width: 1.5" /><line x1="168" x2="180" y1="-87.0325959700475" y2="-67.7432099679081" style="stroke:#3333ff; stroke-width: 1.5" /><line x1="180" x2="192" y1="-67.7432099679081" y2="-45.0530239657686" style="stroke:#3333ff; stroke-width: 1.5" /><line x1="192" x2="204" y1="-45.0530239657686" y2="-18.9620379636291" style="stroke:#3333ff; stroke-width: 1.5" /><line x1="204" x2="211.871658418211" y1="-18.9620379636291" y2="-1.92438657601694e-14" style="stroke:#3333ff; stroke-width: 1.5" /><line y1="-1.75" y2="1.75" x1="0" x2="0" style="stroke:black; stroke-width: 1" /><text y="23.25" x="0" font-size="12" text-anchor="middle" dominant-baseline="middle">0</text><line y1="-1.75" y2="1.75" x1="30" x2="30" style="stroke:black; stroke-width: 1" /><text y="23.25" x="30" font-size="12" text-anchor="middle" dominant-baseline="middle">5</text><line y1="-1.75" y2="1.75" x1="60" x2="60" style="stroke:black; stroke-width: 1" /><text y="23.25" x="60" font-size="12" text-anchor="middle" dominant-baseline="middle">10</text><line y1="-1.75" y2="1.75" x1="90" x2="90" style="stroke:black; stroke-width: 1" /><text y="23.25" x="90" font-size="12" text-anchor="middle" dominant-baseline="middle">15</text><line y1="-1.75" y2="1.75" x1="120" x2="120" style="stroke:black; stroke-width: 1" /><text y="23.25" x="120" font-size="12" text-anchor="middle" dominant-baseline="middle">20</text><line y1="-1.75" y2="1.75" x1="150" x2="150" style="stroke:black; stroke-width: 1" /><text y="23.25" x="150" font-size="12" text-anchor="middle" dominant-baseline="middle">25</text><line y1="-1.75" y2="1.75" x1="180" x2="180" style="stroke:black; stroke-width: 1" /><text y="23.25" x="180" font-size="12" text-anchor="middle" dominant-baseline="middle">30</text><line y1="-1.75" y2="1.75" x1="210" x2="210" style="stroke:black; stroke-width: 1" /><text y="23.25" x="210" font-size="12" text-anchor="middle" dominant-baseline="middle">35</text><line y1="-1.75" y2="1.75" x1="240" x2="240" style="stroke:black; stroke-width: 1" /><text y="23.25" x="240" font-size="12" text-anchor="middle" dominant-baseline="middle">40</text><line x1="-1.75" x2="1.75" y1="0" y2="0" style="stroke:black; stroke-width: 1" /><text x="-5.25" y="0" font-size="12" text-anchor="end" dominant-baseline="middle">0</text><line x1="-1.75" x2="1.75" y1="-43.3333333333333" y2="-43.3333333333333" style="stroke:black; stroke-width: 1" /><text x="-5.25" y="-43.3333333333333" font-size="12" text-anchor="end" dominant-baseline="middle">5</text><line x1="-1.75" x2="1.75" y1="-86.6666666666667" y2="-86.6666666666667" style="stroke:black; stroke-width: 1" /><text x="-5.25" y="-86.6666666666667" font-size="12" text-anchor="end" dominant-baseline="middle">10</text><line x1="-1.75" x2="1.75" y1="-130" y2="-130" style="stroke:black; stroke-width: 1" /><text x="-5.25" y="-130" font-size="12" text-anchor="end" dominant-baseline="middle">15</text><line x1="0" y1="0" x2="240" y2="0" style="stroke:black; stroke-width: 2" /><line x1="0" y1="0" x2="0" y2="-130" style="stroke:black; stroke-width: 2" /><text x="150" y="-137" text-anchor="middle">Throwing at 60 degreees</text></g></svg>
