<svg width="300" height="200" xmlns="http://www.w3.org/2000/svg" xmlns:svg="http://www.w3.org/2000/svg" xmlns:xlink="http://www.w3.org/1999/xlink"><g transform="translate(48,154.5)"><line x1="0" x2="13.5931347378006" y1="0" y2="-27.7942521569932" style="stroke:#3333ff; stroke-width: 1.5" /><line x1="13.5931347378006" x2="27.1862694756011" y1="-27.7942521569932" y2="-52.2510523858492" style="stroke:#3333ff; stroke-width: 1.5" /><line x1="27.1862694756011" x2="40.7794042134016" y1="-52.2510523858492" y2="-73.370400686568" style="stroke:#3333ff; stroke-width: 1.5" /><line x1="40.7794042134016" x2="54.3725389512022" y1="-73.370400686568" y2="-91.1522970591497" style="stroke:#3333ff; stroke-width: 1.5" /><line x1="54.3725389512022" x2="67.9656736890028" y1="-91.1522970591497" y2="-105.596741503594" style="stroke:#3333ff; stroke-width: 1.5" /><line x1="67.9656736890028" x2="81.5588084268033" y1="-105.596741503594" y2="-116.703734019901" style="stroke:#3333ff; stroke-width: 1.5" /><line x1="81.5588084268033" x2="95.1519431646038" y1="-116.703734019901" y2="-124.473274608071" style="stroke:#3333ff; stroke-width: 1.5" /><line x1="95.1519431646038" x2="108.745077902404" y1="-124.473274608071" y2="-128.905363268104" style="stroke:#3333ff; stroke-width: 1.5" /><line x1="108.745077902404" x2="122.338212640205" y1="-128.905363268104" y2="-130" style="stroke:#3333ff; stroke-width: 1.5" /><line x1="122.338212640205" x2="135.931347378006" y1="-130" y2="-127.757184803758" style="stroke:#3333ff; stroke-width: 1.5" /><line x1="135.931347378006" x2="149.524482115806" y1="-127.757184803758" y2="-122.17691767938" style="stroke:#3333ff; stroke-width: 1.5" /><line x1="149.524482115806" x2="163.117616853607" y1="-122.17691767938" y2="-113.259198626864" style="stroke:#3333ff; stroke-width: 1.5" /><line x1="163.117616853607" x2="176.710751591407" y1="-113.259198626864" y2="-101.004027646211" style="stroke:#3333ff; stroke-width: 1.5" /><line x1="176.710751591407" x2="190.303886329208" y1="-101.004027646211" y2="-85.4114047374206" style="stroke:#3333ff; stroke-width: 1.5" /><line x1="190.303886329208" x2="203.897021067008" y1="-85.4114047374206" y2="-66.4813299004932" style="stroke:#3333ff; stroke-width: 1.5" /><line x1="203.897021067008" x2="217.490155804809" y1="-66.4813299004932" y2="-44.2138031354285" style="stroke:#3333ff; stroke-width: 1.5" /><line x1="217.490155804809" x2="231.083290542609" y1="-44.2138031354285" y2="-18.6088244422267" style="stroke:#3333ff; stroke-width: 1.5" /><line x1="231.083290542609" x2="240" y1="-18.6088244422267" y2="-1.88854025188457e-14" style="stroke:#3333ff; stroke-width: 1.5" /><line y1="-1.75" y2="1.75" x1="0" x2="0" style="stroke:black; stroke-width: 1" /><text y="23.25" x="0" font-size="12" text-anchor="middle" dominant-baseline="middle">0</text><line y1="-1.75" y2="1.75" x1="33.9828368445014" x2="33.9828368445014" style="stroke:black; stroke-width: 1" /><text y="23.25" x="33.9828368445014" font-size="12" text-anchor="middle" dominant-baseline="middle">5</text><line y1="-1.75" y2="1.75" x1="67.9656736890028" x2="67.9656736890028" style="stroke:black; stroke-width: 1" /><text y="23.25" x="67.9656736890028" font-size="12" text-anchor="middle" dominant-baseline="middle">10</text><line y1="-1.75" y2="1.75" x1="101.948510533504" x2="101.948510533504" style="stroke:black; stroke-width: 1" /><text y="23.25" x="101.948510533504" font-size="12" text-anchor="middle" dominant-baseline="middle">15</text><line y1="-1.75" y2="1.75" x1="135.931347378006" x2="135.931347378006" style="stroke:black; stroke-width: 1" /><text y="23.25" x="135.931347378006" font-size="12" text-anchor="middle" dominant-baseline="middle">20</text><line y1="-1.75" y2="1.75" x1="169.914184222507" x2="169.914184222507" style="stroke:black; stroke-width: 1" /><text y="23.25" x="169.914184222507" font-size="12" text-anchor="middle" dominant-baseline="middle">25</text><line y1="-1.75" y2="1.75" x1="203.897021067008" x2="203.897021067008" style="stroke:black; stroke-width: 1" /><text y="23.25" x="203.897021067008" font-size="12" text-anchor="middle" dominant-baseline="middle">30</text><line y1="-1.75" y2="1.75" x1="237.87985791151" x2="237.87985791151" style="stroke:black; stroke-width: 1" /><text y="23.25" x="237.87985791151" font-size="12" text-anchor="middle" dominant-baseline="middle">35</text><line x1="-1.75" x2="1.75" y1="0" y2="0" style="stroke:black; stroke-width: 1" /><text x="-5.25" y="0" font-size="12" text-anchor="end" dominant-baseline="middle">0</text><line x1="-1.75" x2="1.75" y1="-42.5261458733077" y2="-42.5261458733077" style="stroke:black; stroke-width: 1" /><text x="-5.25" y="-42.5261458733077" font-size="12" text-anchor="end" dominant-baseline="middle">5</text><line x1="-1.75" x2="1.75" y1="-85.0522917466154" y2="-85.0522917466154" style="stroke:black; stroke-width: 1" /><text x="-5.25" y="-85.0522917466154" font-size="12" text-anchor="end" dominant-baseline="middle">10</text><line x1="-1.75" x2="1.75" y1="-127.578437619923" y2="-127.578437619923" style="stroke:black; stroke-width: 1" /><text x="-5.25" y="-127.578437619923" font-size="12" text-anchor="end" dominant-baseline="middle">15</text><line x1="0" y1="0" x2="240" y2="0" style="stroke:black; stroke-width: 2" /><line x1="0" y1="0" x2="0" y2="-130" style="stroke:black; stroke-width: 2" /><text x="150" y="-137" text-anchor="middle">Throwing at 60 degreees</text></g></svg>
