<svg width="300" height="200" xmlns="http://www.w3.org/2000/svg" xmlns:svg="http://www.w3.org/2000/svg" xmlns:xlink="http://www.w3.org/1999/xlink"><g transform="translate(48,154.5)"><line x1="0" x2="16.6481220562561" y1="0" y2="-33.5967743828335" style="stroke:#3333ff; stroke-width: 1.5" /><line x1="16.6481220562561" x2="33.2962441125122" y1="-33.5967743828335" y2="-62.1851001618653" style="stroke:#3333ff; stroke-width: 1.5" /><line x1="33.2962441125122" x2="49.9443661687682" y1="-62.1851001618653" y2="-85.7649773370955" style="stroke:#3333ff; stroke-width: 1.5" /><line x1="49.9443661687682" x2="66.5924882250243" y1="-85.7649773370955" y2="-104.336405908524" style="stroke:#3333ff; stroke-width: 1.5" /><line x1="66.5924882250243" x2="83.2406102812804" y1="-104.336405908524" y2="-117.899385876151" style="stroke:#3333ff; stroke-width: 1.5" /><line x1="83.2406102812804" x2="99.8887323375365" y1="-117.899385876151" y2="-126.453917239976" style="stroke:#3333ff; stroke-width: 1.5" /><line x1="99.8887323375365" x2="116.536854393793" y1="-126.453917239976" y2="-130" style="stroke:#3333ff; stroke-width: 1.5" /><line x1="116.536854393793" x2="133.184976450049" y1="-130" y2="-128.537634156222" style="stroke:#3333ff; stroke-width: 1.5" /><line x1="133.184976450049" x2="149.833098506305" y1="-128.537634156222" y2="-122.066819708642" style="stroke:#3333ff; stroke-width: 1.5" /><line x1="149.833098506305" x2="166.481220562561" y1="-122.066819708642" y2="-110.587556657261" style="stroke:#3333ff; stroke-width: 1.5" /><line x1="166.481220562561" x2="183.129342618817" y1="-110.587556657261" y2="-94.0998450020782" style="stroke:#3333ff; stroke-width: 1.5" /><line x1="183.129342618817" x2="199.777464675073" y1="-94.0998450020782" y2="-72.6036847430936" style="stroke:#3333ff; stroke-width: 1.5" /><line x1="199.777464675073" x2="216.425586731329" y1="-72.6036847430936" y2="-46.0990758803074" style="stroke:#3333ff; stroke-width: 1.5" /><line x1="216.425586731329" x2="233.073708787585" y1="-46.0990758803074" y2="-14.5860184137196" style="stroke:#3333ff; stroke-width: 1.5" /><line x1="233.073708787585" x2="240" y1="-14.5860184137196" y2="-1.41704764464636e-15" style="stroke:#3333ff; stroke-width: 1.5" /><line y1="-1.75" y2="1.75" x1="0" x2="0" style="stroke:black; stroke-width: 1" /><text y="23.25" x="0" font-size="12" text-anchor="middle" dominant-baseline="middle">0</text><line y1="-1.75" y2="1.75" x1="29.43" x2="29.43" style="stroke:black; stroke-width: 1" /><text y="23.25" x="29.43" font-size="12" text-anchor="middle" dominant-baseline="middle">5</text><line y1="-1.75" y2="1.75" x1="58.86" x2="58.86" style="stroke:black; stroke-width: 1" /><text y="23.25" x="58.86" font-size="12" text-anchor="middle" dominant-baseline="middle">10</text><line y1="-1.75" y2="1.75" x1="88.29" x2="88.29" style="stroke:black; stroke-width: 1" /><text y="23.25" x="88.29" font-size="12" text-anchor="middle" dominant-baseline="middle">15</text><line y1="-1.75" y2="1.75" x1="117.72" x2="117.72" style="stroke:black; stroke-width: 1" /><text y="23.25" x="117.72" font-size="12" text-anchor="middle" dominant-baseline="middle">20</text><line y1="-1.75" y2="1.75" x1="147.15" x2="147.15" style="stroke:black; stroke-width: 1" /><text y="23.25" x="147.15" font-size="12" text-anchor="middle" dominant-baseline="middle">25</text><line y1="-1.75" y2="1.75" x1="176.58" x2="176.58" style="stroke:black; stroke-width: 1" /><text y="23.25" x="176.58" font-size="12" text-anchor="middle" dominant-baseline="middle">30</text><line y1="-1.75" y2="1.75" x1="206.01" x2="206.01" style="stroke:black; stroke-width: 1" /><text y="23.25" x="206.01" font-size="12" text-anchor="middle" dominant-baseline="middle">35</text><line y1="-1.75" y2="1.75" x1="235.44" x2="235.44" style="stroke:black; stroke-width: 1" /><text y="23.25" x="235.44" font-size="12" text-anchor="middle" dominant-baseline="middle">40</text><line x1="-1.75" x2="1.75" y1="0" y2="0" style="stroke:black; stroke-width: 1" /><text x="-5.25" y="0" font-size="12" text-anchor="end" dominant-baseline="middle">0</text><line x1="-1.75" x2="1.75" y1="-63.8181524439557" y2="-63.8181524439557" style="stroke:black; stroke-width: 1" /><text x="-5.25" y="-63.8181524439557" font-size="12" text-anchor="end" dominant-baseline="middle">5</text><line x1="-1.75" x2="1.75" y1="-127.636304887911" y2="-127.636304887911" style="stroke:black; stroke-width: 1" /><text x="-5.25" y="-127.636304887911" font-size="12" text-anchor="end" dominant-baseline="middle">10</text><line x1="0" y1="0" x2="240" y2="0" style="stroke:black; stroke-width: 2" /><line x1="0" y1="0" x2="0" y2="-130" style="stroke:black; stroke-width: 2" /><text x="150" y="-137" text-anchor="middle">Throwing at 45 degreees</text></g></svg>
