<svg width="800" height="600" xmlns="http://www.w3.org/2000/svg" xmlns:svg="http://www.w3.org/2000/svg" xmlns:xlink="http://www.w3.org/1999/xlink"><g transform="translate(128,463.5)"><line x1="0" x2="30.4761904761905" y1="-198.854792939253" y2="-234.530854696744" style="stroke:#3333ff; stroke-width: 1.5" /><line x1="30.4761904761905" x2="60.9523809523809" y1="-234.530854696744" y2="-266.526573998365" style="stroke:#3333ff; stroke-width: 1.5" /><line x1="60.9523809523809" x2="91.4285714285714" y1="-266.526573998365" y2="-294.841950844115" style="stroke:#3333ff; stroke-width: 1.5" /><line x1="91.4285714285714" x2="121.904761904762" y1="-294.841950844115" y2="-319.476985233995" style="stroke:#3333ff; stroke-width: 1.5" /><line x1="121.904761904762" x2="152.380952380952" y1="-319.476985233995" y2="-340.431677168005" style="stroke:#3333ff; stroke-width: 1.5" /><line x1="152.380952380952" x2="182.857142857143" y1="-340.431677168005" y2="-357.706026646145" style="stroke:#3333ff; stroke-width: 1.5" /><line x1="182.857142857143" x2="213.333333333333" y1="-357.706026646145" y2="-371.300033668414" style="stroke:#3333ff; stroke-width: 1.5" /><line x1="213.333333333333" x2="243.809523809524" y1="-371.300033668414" y2="-381.213698234813" style="stroke:#3333ff; stroke-width: 1.5" /><line x1="243.809523809524" x2="274.285714285714" y1="-381.213698234813" y2="-387.447020345342" style="stroke:#3333ff; stroke-width: 1.5" /><line x1="274.285714285714" x2="304.761904761905" y1="-387.447020345342" y2="-390" style="stroke:#3333ff; stroke-width: 1.5" /><line x1="304.761904761905" x2="335.238095238095" y1="-390" y2="-388.872637198788" style="stroke:#3333ff; stroke-width: 1.5" /><line x1="335.238095238095" x2="365.714285714286" y1="-388.872637198788" y2="-384.064931941706" style="stroke:#3333ff; stroke-width: 1.5" /><line x1="365.714285714286" x2="396.190476190476" y1="-384.064931941706" y2="-375.576884228753" style="stroke:#3333ff; stroke-width: 1.5" /><line x1="396.190476190476" x2="426.666666666667" y1="-375.576884228753" y2="-363.40849405993" style="stroke:#3333ff; stroke-width: 1.5" /><line x1="426.666666666667" x2="457.142857142857" y1="-363.40849405993" y2="-347.559761435236" style="stroke:#3333ff; stroke-width: 1.5" /><line x1="457.142857142857" x2="487.619047619048" y1="-347.559761435236" y2="-328.030686354673" style="stroke:#3333ff; stroke-width: 1.5" /><line x1="487.619047619048" x2="518.095238095238" y1="-328.030686354673" y2="-304.821268818239" style="stroke:#3333ff; stroke-width: 1.5" /><line x1="518.095238095238" x2="548.571428571429" y1="-304.821268818239" y2="-277.931508825934" style="stroke:#3333ff; stroke-width: 1.5" /><line x1="548.571428571429" x2="579.047619047619" y1="-277.931508825934" y2="-247.36140637776" style="stroke:#3333ff; stroke-width: 1.5" /><line x1="579.047619047619" x2="609.52380952381" y1="-247.36140637776" y2="-213.110961473715" style="stroke:#3333ff; stroke-width: 1.5" /><line x1="609.52380952381" x2="640" y1="-213.110961473715" y2="-175.180174113799" style="stroke:#3333ff; stroke-width: 1.5" /><line x1="0" x2="30.4761904761905" y1="-386.435957866385" y2="-368.034245587033" style="stroke:#ffdd66; stroke-width: 1.5" /><line x1="30.4761904761905" x2="60.9523809523809" y1="-368.034245587033" y2="-349.632533307681" style="stroke:#ffdd66; stroke-width: 1.5" /><line x1="60.9523809523809" x2="91.4285714285714" y1="-349.632533307681" y2="-331.23082102833" style="stroke:#ffdd66; stroke-width: 1.5" /><line x1="91.4285714285714" x2="121.904761904762" y1="-331.23082102833" y2="-312.829108748978" style="stroke:#ffdd66; stroke-width: 1.5" /><line x1="121.904761904762" x2="152.380952380952" y1="-312.829108748978" y2="-294.427396469626" style="stroke:#ffdd66; stroke-width: 1.5" /><line x1="152.380952380952" x2="182.857142857143" y1="-294.427396469626" y2="-276.025684190275" style="stroke:#ffdd66; stroke-width: 1.5" /><line x1="182.857142857143" x2="213.333333333333" y1="-276.025684190275" y2="-257.623971910923" style="stroke:#ffdd66; stroke-width: 1.5" /><line x1="213.333333333333" x2="243.809523809524" y1="-257.623971910923" y2="-239.222259631571" style="stroke:#ffdd66; stroke-width: 1.5" /><line x1="243.809523809524" x2="274.285714285714" y1="-239.222259631571" y2="-220.82054735222" style="stroke:#ffdd66; stroke-width: 1.5" /><line x1="274.285714285714" x2="304.761904761905" y1="-220.82054735222" y2="-202.418835072868" style="stroke:#ffdd66; stroke-width: 1.5" /><line x1="304.761904761905" x2="335.238095238095" y1="-202.418835072868" y2="-184.017122793516" style="stroke:#ffdd66; stroke-width: 1.5" /><line x1="335.238095238095" x2="365.714285714286" y1="-184.017122793516" y2="-165.615410514165" style="stroke:#ffdd66; stroke-width: 1.5" /><line x1="365.714285714286" x2="396.190476190476" y1="-165.615410514165" y2="-147.213698234813" style="stroke:#ffdd66; stroke-width: 1.5" /><line x1="396.190476190476" x2="426.666666666667" y1="-147.213698234813" y2="-128.811985955461" style="stroke:#ffdd66; stroke-width: 1.5" /><line x1="426.666666666667" x2="457.142857142857" y1="-128.811985955461" y2="-110.41027367611" style="stroke:#ffdd66; stroke-width: 1.5" /><line x1="457.142857142857" x2="487.619047619048" y1="-110.41027367611" y2="-92.0085613967582" style="stroke:#ffdd66; stroke-width: 1.5" /><line x1="487.619047619048" x2="518.095238095238" y1="-92.0085613967582" y2="-73.6068491174066" style="stroke:#ffdd66; stroke-width: 1.5" /><line x1="518.095238095238" x2="548.571428571429" y1="-73.6068491174066" y2="-55.2051368380549" style="stroke:#ffdd66; stroke-width: 1.5" /><line x1="548.571428571429" x2="579.047619047619" y1="-55.2051368380549" y2="-36.8034245587033" style="stroke:#ffdd66; stroke-width: 1.5" /><line x1="579.047619047619" x2="609.52380952381" y1="-36.8034245587033" y2="-18.4017122793516" style="stroke:#ffdd66; stroke-width: 1.5" /><line x1="609.52380952381" x2="640" y1="-18.4017122793516" y2="0" style="stroke:#ffdd66; stroke-width: 1.5" /><line y1="-5.25" y2="5.25" x1="0" x2="0" style="stroke:black; stroke-width: 1" /><text y="33.75" x="0" font-size="12" text-anchor="middle" dominant-baseline="middle">0</text><line y1="-5.25" y2="5.25" x1="76.1904761904762" x2="76.1904761904762" style="stroke:black; stroke-width: 1" /><text y="33.75" x="76.1904761904762" font-size="12" text-anchor="middle" dominant-baseline="middle">0.5</text><line y1="-5.25" y2="5.25" x1="152.380952380952" x2="152.380952380952" style="stroke:black; stroke-width: 1" /><text y="33.75" x="152.380952380952" font-size="12" text-anchor="middle" dominant-baseline="middle">1</text><line y1="-5.25" y2="5.25" x1="228.571428571429" x2="228.571428571429" style="stroke:black; stroke-width: 1" /><text y="33.75" x="228.571428571429" font-size="12" text-anchor="middle" dominant-baseline="middle">1.5</text><line y1="-5.25" y2="5.25" x1="304.761904761905" x2="304.761904761905" style="stroke:black; stroke-width: 1" /><text y="33.75" x="304.761904761905" font-size="12" text-anchor="middle" dominant-baseline="middle">2</text><line y1="-5.25" y2="5.25" x1="380.952380952381" x2="380.952380952381" style="stroke:black; stroke-width: 1" /><text y="33.75" x="380.952380952381" font-size="12" text-anchor="middle" dominant-baseline="middle">2.5</text><line y1="-5.25" y2="5.25" x1="457.142857142857" x2="457.142857142857" style="stroke:black; stroke-width: 1" /><text y="33.75" x="457.142857142857" font-size="12" text-anchor="middle" dominant-baseline="middle">3</text><line y1="-5.25" y2="5.25" x1="533.333333333333" x2="533.333333333333" style="stroke:black; stroke-width: 1" /><text y="33.75" x="533.333333333333" font-size="12" text-anchor="middle" dominant-baseline="middle">3.5</text><line y1="-5.25" y2="5.25" x1="609.52380952381" x2="609.52380952381" style="stroke:black; stroke-width: 1" /><text y="33.75" x="609.52380952381" font-size="12" text-anchor="middle" dominant-baseline="middle">4</text><line x1="-5.25" x2="5.25" y1="-11.2736280121206" y2="-11.2736280121206" style="stroke:black; stroke-width: 1" /><text x="-15.75" y="-11.2736280121206" font-size="12" text-anchor="end" dominant-baseline="middle">-20</text><line x1="-5.25" x2="5.25" y1="-58.1689192439036" y2="-58.1689192439036" style="stroke:black; stroke-width: 1" /><text x="-15.75" y="-58.1689192439036" font-size="12" text-anchor="end" dominant-baseline="middle">-15</text><line x1="-5.25" x2="5.25" y1="-105.064210475687" y2="-105.064210475687" style="stroke:black; stroke-width: 1" /><text x="-15.75" y="-105.064210475687" font-size="12" text-anchor="end" dominant-baseline="middle">-10</text><line x1="-5.25" x2="5.25" y1="-151.95950170747" y2="-151.95950170747" style="stroke:black; stroke-width: 1" /><text x="-15.75" y="-151.95950170747" font-size="12" text-anchor="end" dominant-baseline="middle">-5</text><line x1="-5.25" x2="5.25" y1="-198.854792939253" y2="-198.854792939253" style="stroke:black; stroke-width: 1" /><text x="-15.75" y="-198.854792939253" font-size="12" text-anchor="end" dominant-baseline="middle">0</text><line x1="-5.25" x2="5.25" y1="-245.750084171036" y2="-245.750084171036" style="stroke:black; stroke-width: 1" /><text x="-15.75" y="-245.750084171036" font-size="12" text-anchor="end" dominant-baseline="middle">5</text><line x1="-5.25" x2="5.25" y1="-292.645375402819" y2="-292.645375402819" style="stroke:black; stroke-width: 1" /><text x="-15.75" y="-292.645375402819" font-size="12" text-anchor="end" dominant-baseline="middle">10</text><line x1="-5.25" x2="5.25" y1="-339.540666634602" y2="-339.540666634602" style="stroke:black; stroke-width: 1" /><text x="-15.75" y="-339.540666634602" font-size="12" text-anchor="end" dominant-baseline="middle">15</text><line x1="-5.25" x2="5.25" y1="-386.435957866385" y2="-386.435957866385" style="stroke:black; stroke-width: 1" /><text x="-15.75" y="-386.435957866385" font-size="12" text-anchor="end" dominant-baseline="middle">20</text><line x1="0" y1="0" x2="640" y2="0" style="stroke:black; stroke-width: 2" /><line x1="0" y1="0" x2="0" y2="-390" style="stroke:black; stroke-width: 2" /><text x="400" y="-411" text-anchor="middle">vertical throwing</text></g></svg>
