<svg width="300" height="200" xmlns="http://www.w3.org/2000/svg" xmlns:svg="http://www.w3.org/2000/svg" xmlns:xlink="http://www.w3.org/1999/xlink"><g transform="translate(48,154.5)"><line x1="0" x2="20.7846096908265" y1="0" y2="-15.6329333333333" style="stroke:#3333ff; stroke-width: 1.5" /><line x1="20.7846096908265" x2="41.5692193816531" y1="-15.6329333333333" y2="-27.8650666666667" style="stroke:#3333ff; stroke-width: 1.5" /><line x1="41.5692193816531" x2="62.3538290724796" y1="-27.8650666666667" y2="-36.6964" style="stroke:#3333ff; stroke-width: 1.5" /><line x1="62.3538290724796" x2="83.1384387633061" y1="-36.6964" y2="-42.1269333333333" style="stroke:#3333ff; stroke-width: 1.5" /><line x1="83.1384387633061" x2="103.923048454133" y1="-42.1269333333333" y2="-44.1566666666667" style="stroke:#3333ff; stroke-width: 1.5" /><line x1="103.923048454133" x2="124.707658144959" y1="-44.1566666666667" y2="-42.7856" style="stroke:#3333ff; stroke-width: 1.5" /><line x1="124.707658144959" x2="145.492267835786" y1="-42.7856" y2="-38.0137333333333" style="stroke:#3333ff; stroke-width: 1.5" /><line x1="145.492267835786" x2="166.276877526612" y1="-38.0137333333333" y2="-29.8410666666666" style="stroke:#3333ff; stroke-width: 1.5" /><line x1="166.276877526612" x2="187.061487217439" y1="-29.8410666666666" y2="-18.2676" style="stroke:#3333ff; stroke-width: 1.5" /><line x1="187.061487217439" x2="207.846096908265" y1="-18.2676" y2="-3.29333333333331" style="stroke:#3333ff; stroke-width: 1.5" /><line x1="207.846096908265" x2="211.871658418211" y1="-3.29333333333331" y2="-2.98279919282625e-14" style="stroke:#3333ff; stroke-width: 1.5" /><line y1="-1.75" y2="1.75" x1="0" x2="0" style="stroke:black; stroke-width: 1" /><text y="23.25" x="0" font-size="12" text-anchor="middle" dominant-baseline="middle">0</text><line y1="-1.75" y2="1.75" x1="30" x2="30" style="stroke:black; stroke-width: 1" /><text y="23.25" x="30" font-size="12" text-anchor="middle" dominant-baseline="middle">5</text><line y1="-1.75" y2="1.75" x1="60" x2="60" style="stroke:black; stroke-width: 1" /><text y="23.25" x="60" font-size="12" text-anchor="middle" dominant-baseline="middle">10</text><line y1="-1.75" y2="1.75" x1="90" x2="90" style="stroke:black; stroke-width: 1" /><text y="23.25" x="90" font-size="12" text-anchor="middle" dominant-baseline="middle">15</text><line y1="-1.75" y2="1.75" x1="120" x2="120" style="stroke:black; stroke-width: 1" /><text y="23.25" x="120" font-size="12" text-anchor="middle" dominant-baseline="middle">20</text><line y1="-1.75" y2="1.75" x1="150" x2="150" style="stroke:black; stroke-width: 1" /><text y="23.25" x="150" font-size="12" text-anchor="middle" dominant-baseline="middle">25</text><line y1="-1.75" y2="1.75" x1="180" x2="180" style="stroke:black; stroke-width: 1" /><text y="23.25" x="180" font-size="12" text-anchor="middle" dominant-baseline="middle">30</text><line y1="-1.75" y2="1.75" x1="210" x2="210" style="stroke:black; stroke-width: 1" /><text y="23.25" x="210" font-size="12" text-anchor="middle" dominant-baseline="middle">35</text><line y1="-1.75" y2="1.75" x1="240" x2="240" style="stroke:black; stroke-width: 1" /><text y="23.25" x="240" font-size="12" text-anchor="middle" dominant-baseline="middle">40</text><line x1="-1.75" x2="1.75" y1="0" y2="0" style="stroke:black; stroke-width: 1" /><text x="-5.25" y="0" font-size="12" text-anchor="end" dominant-baseline="middle">0</text><line x1="-1.75" x2="1.75" y1="-43.3333333333333" y2="-43.3333333333333" style="stroke:black; stroke-width: 1" /><text x="-5.25" y="-43.3333333333333" font-size="12" text-anchor="end" dominant-baseline="middle">5</text><line x1="-1.75" x2="1.75" y1="-86.6666666666667" y2="-86.6666666666667" style="stroke:black; stroke-width: 1" /><text x="-5.25" y="-86.6666666666667" font-size="12" text-anchor="end" dominant-baseline="middle">10</text><line x1="-1.75" x2="1.75" y1="-130" y2="-130" style="stroke:black; stroke-width: 1" /><text x="-5.25" y="-130" font-size="12" text-anchor="end" dominant-baseline="middle">15</text><line x1="0" y1="0" x2="240" y2="0" style="stroke:black; stroke-width: 2" /><line x1="0" y1="0" x2="0" y2="-130" style="stroke:black; stroke-width: 2" /><text x="150" y="-137" text-anchor="middle">Throwing at 30 degreees</text></g></svg>
