<svg width="300" height="200" xmlns="http://www.w3.org/2000/svg" xmlns:svg="http://www.w3.org/2000/svg" xmlns:xlink="http://www.w3.org/1999/xlink"><g transform="translate(48,154.5)"><line x1="0" x2="16.9705627484771" y1="0" y2="-22.8126350811336" style="stroke:#3333ff; stroke-width: 1.5" /><line x1="16.9705627484771" x2="33.9411254969543" y1="-22.8126350811336" y2="-42.2244701622673" style="stroke:#3333ff; stroke-width: 1.5" /><line x1="33.9411254969543" x2="50.9116882454314" y1="-42.2244701622673" y2="-58.2355052434009" style="stroke:#3333ff; stroke-width: 1.5" /><line x1="50.9116882454314" x2="67.8822509939086" y1="-58.2355052434009" y2="-70.8457403245346" style="stroke:#3333ff; stroke-width: 1.5" /><line x1="67.8822509939086" x2="84.8528137423857" y1="-70.8457403245346" y2="-80.0551754056682" style="stroke:#3333ff; stroke-width: 1.5" /><line x1="84.8528137423857" x2="101.823376490863" y1="-80.0551754056682" y2="-85.8638104868019" style="stroke:#3333ff; stroke-width: 1.5" /><line x1="101.823376490863" x2="118.79393923934" y1="-85.8638104868019" y2="-88.2716455679355" style="stroke:#3333ff; stroke-width: 1.5" /><line x1="118.79393923934" x2="135.764501987817" y1="-88.2716455679355" y2="-87.2786806490692" style="stroke:#3333ff; stroke-width: 1.5" /><line x1="135.764501987817" x2="152.735064736294" y1="-87.2786806490692" y2="-82.8849157302028" style="stroke:#3333ff; stroke-width: 1.5" /><line x1="152.735064736294" x2="169.705627484771" y1="-82.8849157302028" y2="-75.0903508113365" style="stroke:#3333ff; stroke-width: 1.5" /><line x1="169.705627484771" x2="186.676190233248" y1="-75.0903508113365" y2="-63.8949858924701" style="stroke:#3333ff; stroke-width: 1.5" /><line x1="186.676190233248" x2="203.646752981726" y1="-63.8949858924701" y2="-49.2988209736038" style="stroke:#3333ff; stroke-width: 1.5" /><line x1="203.646752981726" x2="220.617315730203" y1="-49.2988209736038" y2="-31.3018560547374" style="stroke:#3333ff; stroke-width: 1.5" /><line x1="220.617315730203" x2="237.58787847868" y1="-31.3018560547374" y2="-9.90409113587106" style="stroke:#3333ff; stroke-width: 1.5" /><line x1="237.58787847868" x2="244.648318042813" y1="-9.90409113587106" y2="-9.62193288008469e-16" style="stroke:#3333ff; stroke-width: 1.5" /><line y1="-1.75" y2="1.75" x1="0" x2="0" style="stroke:black; stroke-width: 1" /><text y="23.25" x="0" font-size="12" text-anchor="middle" dominant-baseline="middle">0</text><line y1="-1.75" y2="1.75" x1="30" x2="30" style="stroke:black; stroke-width: 1" /><text y="23.25" x="30" font-size="12" text-anchor="middle" dominant-baseline="middle">5</text><line y1="-1.75" y2="1.75" x1="60" x2="60" style="stroke:black; stroke-width: 1" /><text y="23.25" x="60" font-size="12" text-anchor="middle" dominant-baseline="middle">10</text><line y1="-1.75" y2="1.75" x1="90" x2="90" style="stroke:black; stroke-width: 1" /><text y="23.25" x="90" font-size="12" text-anchor="middle" dominant-baseline="middle">15</text><line y1="-1.75" y2="1.75" x1="120" x2="120" style="stroke:black; stroke-width: 1" /><text y="23.25" x="120" font-size="12" text-anchor="middle" dominant-baseline="middle">20</text><line y1="-1.75" y2="1.75" x1="150" x2="150" style="stroke:black; stroke-width: 1" /><text y="23.25" x="150" font-size="12" text-anchor="middle" dominant-baseline="middle">25</text><line y1="-1.75" y2="1.75" x1="180" x2="180" style="stroke:black; stroke-width: 1" /><text y="23.25" x="180" font-size="12" text-anchor="middle" dominant-baseline="middle">30</text><line y1="-1.75" y2="1.75" x1="210" x2="210" style="stroke:black; stroke-width: 1" /><text y="23.25" x="210" font-size="12" text-anchor="middle" dominant-baseline="middle">35</text><line y1="-1.75" y2="1.75" x1="240" x2="240" style="stroke:black; stroke-width: 1" /><text y="23.25" x="240" font-size="12" text-anchor="middle" dominant-baseline="middle">40</text><line x1="-1.75" x2="1.75" y1="0" y2="0" style="stroke:black; stroke-width: 1" /><text x="-5.25" y="0" font-size="12" text-anchor="end" dominant-baseline="middle">0</text><line x1="-1.75" x2="1.75" y1="-43.3333333333333" y2="-43.3333333333333" style="stroke:black; stroke-width: 1" /><text x="-5.25" y="-43.3333333333333" font-size="12" text-anchor="end" dominant-baseline="middle">5</text><line x1="-1.75" x2="1.75" y1="-86.6666666666667" y2="-86.6666666666667" style="stroke:black; stroke-width: 1" /><text x="-5.25" y="-86.6666666666667" font-size="12" text-anchor="end" dominant-baseline="middle">10</text><line x1="-1.75" x2="1.75" y1="-130" y2="-130" style="stroke:black; stroke-width: 1" /><text x="-5.25" y="-130" font-size="12" text-anchor="end" dominant-baseline="middle">15</text><line x1="0" y1="0" x2="240" y2="0" style="stroke:black; stroke-width: 2" /><line x1="0" y1="0" x2="0" y2="-130" style="stroke:black; stroke-width: 2" /><text x="150" y="-137" text-anchor="middle">Throwing at 45 degreees</text></g></svg>
