<svg width="300" height="200" xmlns="http://www.w3.org/2000/svg" xmlns:svg="http://www.w3.org/2000/svg" xmlns:xlink="http://www.w3.org/1999/xlink"><g transform="translate(48,154.5)"><line x1="0" x2="23.544" y1="0" y2="-46.0243375858685" style="stroke:#3333ff; stroke-width: 1.5" /><line x1="23.544" x2="47.088" y1="-46.0243375858685" y2="-82.0365063788028" style="stroke:#3333ff; stroke-width: 1.5" /><line x1="47.088" x2="70.632" y1="-82.0365063788028" y2="-108.036506378803" style="stroke:#3333ff; stroke-width: 1.5" /><line x1="70.632" x2="94.176" y1="-108.036506378803" y2="-124.024337585869" style="stroke:#3333ff; stroke-width: 1.5" /><line x1="94.176" x2="117.72" y1="-124.024337585869" y2="-130" style="stroke:#3333ff; stroke-width: 1.5" /><line x1="117.72" x2="141.264" y1="-130" y2="-125.963493621197" style="stroke:#3333ff; stroke-width: 1.5" /><line x1="141.264" x2="164.808" y1="-125.963493621197" y2="-111.91481844946" style="stroke:#3333ff; stroke-width: 1.5" /><line x1="164.808" x2="188.352" y1="-111.91481844946" y2="-87.853974484789" style="stroke:#3333ff; stroke-width: 1.5" /><line x1="188.352" x2="211.896" y1="-87.853974484789" y2="-53.7809617271835" style="stroke:#3333ff; stroke-width: 1.5" /><line x1="211.896" x2="235.44" y1="-53.7809617271835" y2="-9.69578017664371" style="stroke:#3333ff; stroke-width: 1.5" /><line x1="235.44" x2="240" y1="-9.69578017664371" y2="-8.78154816337465e-14" style="stroke:#3333ff; stroke-width: 1.5" /><line y1="-1.75" y2="1.75" x1="0" x2="0" style="stroke:black; stroke-width: 1" /><text y="23.25" x="0" font-size="12" text-anchor="middle" dominant-baseline="middle">0</text><line y1="-1.75" y2="1.75" x1="33.9828368445014" x2="33.9828368445014" style="stroke:black; stroke-width: 1" /><text y="23.25" x="33.9828368445014" font-size="12" text-anchor="middle" dominant-baseline="middle">5</text><line y1="-1.75" y2="1.75" x1="67.9656736890027" x2="67.9656736890027" style="stroke:black; stroke-width: 1" /><text y="23.25" x="67.9656736890027" font-size="12" text-anchor="middle" dominant-baseline="middle">10</text><line y1="-1.75" y2="1.75" x1="101.948510533504" x2="101.948510533504" style="stroke:black; stroke-width: 1" /><text y="23.25" x="101.948510533504" font-size="12" text-anchor="middle" dominant-baseline="middle">15</text><line y1="-1.75" y2="1.75" x1="135.931347378005" x2="135.931347378005" style="stroke:black; stroke-width: 1" /><text y="23.25" x="135.931347378005" font-size="12" text-anchor="middle" dominant-baseline="middle">20</text><line y1="-1.75" y2="1.75" x1="169.914184222507" x2="169.914184222507" style="stroke:black; stroke-width: 1" /><text y="23.25" x="169.914184222507" font-size="12" text-anchor="middle" dominant-baseline="middle">25</text><line y1="-1.75" y2="1.75" x1="203.897021067008" x2="203.897021067008" style="stroke:black; stroke-width: 1" /><text y="23.25" x="203.897021067008" font-size="12" text-anchor="middle" dominant-baseline="middle">30</text><line y1="-1.75" y2="1.75" x1="237.87985791151" x2="237.87985791151" style="stroke:black; stroke-width: 1" /><text y="23.25" x="237.87985791151" font-size="12" text-anchor="middle" dominant-baseline="middle">35</text><line x1="-1.75" x2="1.75" y1="0" y2="0" style="stroke:black; stroke-width: 1" /><text x="-5.25" y="0" font-size="12" text-anchor="end" dominant-baseline="middle">0</text><line x1="-1.75" x2="1.75" y1="-12.7576054955839" y2="-12.7576054955839" style="stroke:black; stroke-width: 1" /><text x="-5.25" y="-12.7576054955839" font-size="12" text-anchor="end" dominant-baseline="middle">0.5</text><line x1="-1.75" x2="1.75" y1="-25.5152109911678" y2="-25.5152109911678" style="stroke:black; stroke-width: 1" /><text x="-5.25" y="-25.5152109911678" font-size="12" text-anchor="end" dominant-baseline="middle">1</text><line x1="-1.75" x2="1.75" y1="-38.2728164867517" y2="-38.2728164867517" style="stroke:black; stroke-width: 1" /><text x="-5.25" y="-38.2728164867517" font-size="12" text-anchor="end" dominant-baseline="middle">1.5</text><line x1="-1.75" x2="1.75" y1="-51.0304219823356" y2="-51.0304219823356" style="stroke:black; stroke-width: 1" /><text x="-5.25" y="-51.0304219823356" font-size="12" text-anchor="end" dominant-baseline="middle">2</text><line x1="-1.75" x2="1.75" y1="-63.7880274779195" y2="-63.7880274779195" style="stroke:black; stroke-width: 1" /><text x="-5.25" y="-63.7880274779195" font-size="12" text-anchor="end" dominant-baseline="middle">2.5</text><line x1="-1.75" x2="1.75" y1="-76.5456329735034" y2="-76.5456329735034" style="stroke:black; stroke-width: 1" /><text x="-5.25" y="-76.5456329735034" font-size="12" text-anchor="end" dominant-baseline="middle">3</text><line x1="-1.75" x2="1.75" y1="-89.3032384690874" y2="-89.3032384690874" style="stroke:black; stroke-width: 1" /><text x="-5.25" y="-89.3032384690874" font-size="12" text-anchor="end" dominant-baseline="middle">3.5</text><line x1="-1.75" x2="1.75" y1="-102.060843964671" y2="-102.060843964671" style="stroke:black; stroke-width: 1" /><text x="-5.25" y="-102.060843964671" font-size="12" text-anchor="end" dominant-baseline="middle">4</text><line x1="-1.75" x2="1.75" y1="-114.818449460255" y2="-114.818449460255" style="stroke:black; stroke-width: 1" /><text x="-5.25" y="-114.818449460255" font-size="12" text-anchor="end" dominant-baseline="middle">4.5</text><line x1="-1.75" x2="1.75" y1="-127.576054955839" y2="-127.576054955839" style="stroke:black; stroke-width: 1" /><text x="-5.25" y="-127.576054955839" font-size="12" text-anchor="end" dominant-baseline="middle">5</text><line x1="0" y1="0" x2="240" y2="0" style="stroke:black; stroke-width: 2" /><line x1="0" y1="0" x2="0" y2="-130" style="stroke:black; stroke-width: 2" /><text x="150" y="-137" text-anchor="middle">Throwing at 30 degreees</text></g></svg>
