<svg width="300" height="200" xmlns="http://www.w3.org/2000/svg" xmlns:svg="http://www.w3.org/2000/svg"><g transform="matrix(24,0,0,13.3333333333333,0,160)"><rect y="-5" x="0" width="0.8" height="5" style="fill:blue" /><text transform="rotate(90)" y="0" x="0" font-size="1">the</text><rect y="-6" x="1" width="0.8" height="6" style="fill:blue" /><text transform="rotate(90)" y="-1" x="0" font-size="1">quick</text><rect y="-4" x="2" width="0.8" height="4" style="fill:blue" /><text transform="rotate(90)" y="-2" x="0" font-size="1">brown</text><rect y="-3" x="3" width="0.8" height="3" style="fill:blue" /><text transform="rotate(90)" y="-3" x="0" font-size="1">fox</text><rect y="-8" x="4" width="0.8" height="8" style="fill:blue" /><text transform="rotate(90)" y="-4" x="0" font-size="1">jumps</text><rect y="-12" x="5" width="0.8" height="12" style="fill:blue" /><text transform="rotate(90)" y="-5" x="0" font-size="1">over</text><rect y="0" x="6" width="0.8" height="0" style="fill:blue" /><text transform="rotate(90)" y="-6" x="0" font-size="1">the</text><rect y="0" x="7" width="0.8" height="0" style="fill:blue" /><text transform="rotate(90)" y="-7" x="0" font-size="1">lazy</text><rect y="-3" x="8" width="0.8" height="3" style="fill:blue" /><text transform="rotate(90)" y="-8" x="0" font-size="1">red</text><rect y="-7" x="9" width="0.8" height="7" style="fill:blue" /><text transform="rotate(90)" y="-9" x="0" font-size="1">dog</text></g><line x1="0" y1="200" x2="300" y2="200" style="stroke:black; stroke-width: 2" /><line x1="0" y1="0" x2="0" y2="200" style="stroke:black; stroke-width: 2" /></svg>
