<svg width="600" height="550" xmlns="http://www.w3.org/2000/svg" xmlns:svg="http://www.w3.org/2000/svg"><g transform="translate(96,445)"><rect y="-18.4873949579832" x="0" width="2.94478527607362" height="18.4873949579832" style="fill:blue" /><text transform="rotate(90)" y="5.52760736196319" x="7.5" font-size="14">2009-03-04</text><rect y="-23.5294117647059" x="2.94478527607362" width="2.94478527607362" height="23.5294117647059" style="fill:blue" /><rect y="-126.050420168067" x="5.88957055214724" width="2.94478527607362" height="126.050420168067" style="fill:blue" /><rect y="-45.3781512605042" x="8.83435582822086" width="2.94478527607362" height="45.3781512605042" style="fill:blue" /><rect y="-35.2941176470588" x="11.7791411042945" width="2.94478527607362" height="35.2941176470588" style="fill:blue" /><rect y="-30.2521008403361" x="14.7239263803681" width="2.94478527607362" height="30.2521008403361" style="fill:blue" /><rect y="-23.5294117647059" x="17.6687116564417" width="2.94478527607362" height="23.5294117647059" style="fill:blue" /><rect y="-35.2941176470588" x="20.6134969325153" width="2.94478527607362" height="35.2941176470588" style="fill:blue" /><rect y="-36.9747899159664" x="23.558282208589" width="2.94478527607362" height="36.9747899159664" style="fill:blue" /><text transform="rotate(90)" y="-18.0306748466258" x="7.5" font-size="14">2009-03-12</text><rect y="-28.5714285714286" x="26.5030674846626" width="2.94478527607362" height="28.5714285714286" style="fill:blue" /><rect y="-20.1680672268908" x="29.4478527607362" width="2.94478527607362" height="20.1680672268908" style="fill:blue" /><rect y="-20.1680672268908" x="32.3926380368098" width="2.94478527607362" height="20.1680672268908" style="fill:blue" /><rect y="-11.7647058823529" x="35.3374233128834" width="2.94478527607362" height="11.7647058823529" style="fill:blue" /><rect y="-23.5294117647059" x="38.2822085889571" width="2.94478527607362" height="23.5294117647059" style="fill:blue" /><rect y="-30.2521008403361" x="41.2269938650307" width="2.94478527607362" height="30.2521008403361" style="fill:blue" /><rect y="-36.9747899159664" x="44.1717791411043" width="2.94478527607362" height="36.9747899159664" style="fill:blue" /><rect y="-26.890756302521" x="47.1165644171779" width="2.94478527607362" height="26.890756302521" style="fill:blue" /><text transform="rotate(90)" y="-41.5889570552147" x="7.5" font-size="14">2009-03-20</text><rect y="-18.4873949579832" x="50.0613496932515" width="2.94478527607362" height="18.4873949579832" style="fill:blue" /><rect y="-16.8067226890756" x="53.0061349693252" width="2.94478527607362" height="16.8067226890756" style="fill:blue" /><rect y="-31.9327731092437" x="55.9509202453988" width="2.94478527607362" height="31.9327731092437" style="fill:blue" /><rect y="-42.0168067226891" x="58.8957055214724" width="2.94478527607362" height="42.0168067226891" style="fill:blue" /><rect y="-30.2521008403361" x="61.840490797546" width="2.94478527607362" height="30.2521008403361" style="fill:blue" /><rect y="-31.9327731092437" x="64.7852760736196" width="2.94478527607362" height="31.9327731092437" style="fill:blue" /><rect y="-16.8067226890756" x="67.7300613496932" width="2.94478527607362" height="16.8067226890756" style="fill:blue" /><rect y="-11.7647058823529" x="70.6748466257669" width="2.94478527607362" height="11.7647058823529" style="fill:blue" /><text transform="rotate(90)" y="-65.1472392638037" x="7.5" font-size="14">2009-03-28</text><rect y="-13.4453781512605" x="73.6196319018405" width="2.94478527607362" height="13.4453781512605" style="fill:blue" /><rect y="-21.8487394957983" x="76.5644171779141" width="2.94478527607362" height="21.8487394957983" style="fill:blue" /><rect y="-20.1680672268908" x="79.5092024539877" width="2.94478527607362" height="20.1680672268908" style="fill:blue" /><rect y="-25.2100840336134" x="82.4539877300613" width="2.94478527607362" height="25.2100840336134" style="fill:blue" /><rect y="-21.8487394957983" x="85.398773006135" width="2.94478527607362" height="21.8487394957983" style="fill:blue" /><rect y="-13.4453781512605" x="88.3435582822086" width="2.94478527607362" height="13.4453781512605" style="fill:blue" /><rect y="-20.1680672268908" x="91.2883435582822" width="2.94478527607362" height="20.1680672268908" style="fill:blue" /><rect y="-21.8487394957983" x="94.2331288343558" width="2.94478527607362" height="21.8487394957983" style="fill:blue" /><text transform="rotate(90)" y="-88.7055214723926" x="7.5" font-size="14">2009-04-05</text><rect y="-13.4453781512605" x="97.1779141104294" width="2.94478527607362" height="13.4453781512605" style="fill:blue" /><rect y="-20.1680672268908" x="100.122699386503" width="2.94478527607362" height="20.1680672268908" style="fill:blue" /><rect y="-18.4873949579832" x="103.067484662577" width="2.94478527607362" height="18.4873949579832" style="fill:blue" /><rect y="-20.1680672268908" x="106.01226993865" width="2.94478527607362" height="20.1680672268908" style="fill:blue" /><rect y="-16.8067226890756" x="108.957055214724" width="2.94478527607362" height="16.8067226890756" style="fill:blue" /><rect y="-25.2100840336134" x="111.901840490798" width="2.94478527607362" height="25.2100840336134" style="fill:blue" /><rect y="-18.4873949579832" x="114.846625766871" width="2.94478527607362" height="18.4873949579832" style="fill:blue" /><rect y="-16.8067226890756" x="117.791411042945" width="2.94478527607362" height="16.8067226890756" style="fill:blue" /><text transform="rotate(90)" y="-112.263803680982" x="7.5" font-size="14">2009-04-13</text><rect y="-28.5714285714286" x="120.736196319018" width="2.94478527607362" height="28.5714285714286" style="fill:blue" /><rect y="-16.8067226890756" x="123.680981595092" width="2.94478527607362" height="16.8067226890756" style="fill:blue" /><rect y="-28.5714285714286" x="126.625766871166" width="2.94478527607362" height="28.5714285714286" style="fill:blue" /><rect y="-18.4873949579832" x="129.570552147239" width="2.94478527607362" height="18.4873949579832" style="fill:blue" /><rect y="-31.9327731092437" x="132.515337423313" width="2.94478527607362" height="31.9327731092437" style="fill:blue" /><rect y="-16.8067226890756" x="135.460122699386" width="2.94478527607362" height="16.8067226890756" style="fill:blue" /><rect y="-23.5294117647059" x="138.40490797546" width="2.94478527607362" height="23.5294117647059" style="fill:blue" /><rect y="-72.2689075630252" x="141.349693251534" width="2.94478527607362" height="72.2689075630252" style="fill:blue" /><text transform="rotate(90)" y="-135.822085889571" x="7.5" font-size="14">2009-04-21</text><rect y="-50.4201680672269" x="144.294478527607" width="2.94478527607362" height="50.4201680672269" style="fill:blue" /><rect y="-31.9327731092437" x="147.239263803681" width="2.94478527607362" height="31.9327731092437" style="fill:blue" /><rect y="-48.7394957983193" x="150.184049079755" width="2.94478527607362" height="48.7394957983193" style="fill:blue" /><rect y="-31.9327731092437" x="153.128834355828" width="2.94478527607362" height="31.9327731092437" style="fill:blue" /><rect y="-52.1008403361345" x="156.073619631902" width="2.94478527607362" height="52.1008403361345" style="fill:blue" /><rect y="-97.4789915966387" x="159.018404907975" width="2.94478527607362" height="97.4789915966387" style="fill:blue" /><rect y="-53.781512605042" x="161.963190184049" width="2.94478527607362" height="53.781512605042" style="fill:blue" /><rect y="-47.0588235294118" x="164.907975460123" width="2.94478527607362" height="47.0588235294118" style="fill:blue" /><text transform="rotate(90)" y="-159.380368098159" x="7.5" font-size="14">2009-04-29</text><rect y="-80.672268907563" x="167.852760736196" width="2.94478527607362" height="80.672268907563" style="fill:blue" /><rect y="-42.0168067226891" x="170.79754601227" width="2.94478527607362" height="42.0168067226891" style="fill:blue" /><rect y="-55.4621848739496" x="173.742331288344" width="2.94478527607362" height="55.4621848739496" style="fill:blue" /><rect y="-33.6134453781513" x="176.687116564417" width="2.94478527607362" height="33.6134453781513" style="fill:blue" /><rect y="-36.9747899159664" x="179.631901840491" width="2.94478527607362" height="36.9747899159664" style="fill:blue" /><rect y="-35.2941176470588" x="182.576687116564" width="2.94478527607362" height="35.2941176470588" style="fill:blue" /><rect y="-42.0168067226891" x="185.521472392638" width="2.94478527607362" height="42.0168067226891" style="fill:blue" /><rect y="-40.3361344537815" x="188.466257668712" width="2.94478527607362" height="40.3361344537815" style="fill:blue" /><text transform="rotate(90)" y="-182.938650306748" x="7.5" font-size="14">2009-05-07</text><rect y="-43.6974789915966" x="191.411042944785" width="2.94478527607362" height="43.6974789915966" style="fill:blue" /><rect y="-20.1680672268908" x="194.355828220859" width="2.94478527607362" height="20.1680672268908" style="fill:blue" /><rect y="-35.2941176470588" x="197.300613496932" width="2.94478527607362" height="35.2941176470588" style="fill:blue" /><rect y="-68.9075630252101" x="200.245398773006" width="2.94478527607362" height="68.9075630252101" style="fill:blue" /><rect y="-38.6554621848739" x="203.19018404908" width="2.94478527607362" height="38.6554621848739" style="fill:blue" /><rect y="-38.6554621848739" x="206.134969325153" width="2.94478527607362" height="38.6554621848739" style="fill:blue" /><rect y="-38.6554621848739" x="209.079754601227" width="2.94478527607362" height="38.6554621848739" style="fill:blue" /><rect y="-23.5294117647059" x="212.024539877301" width="2.94478527607362" height="23.5294117647059" style="fill:blue" /><text transform="rotate(90)" y="-206.496932515337" x="7.5" font-size="14">2009-05-15</text><rect y="-18.4873949579832" x="214.969325153374" width="2.94478527607362" height="18.4873949579832" style="fill:blue" /><rect y="-18.4873949579832" x="217.914110429448" width="2.94478527607362" height="18.4873949579832" style="fill:blue" /><rect y="-13.4453781512605" x="220.858895705521" width="2.94478527607362" height="13.4453781512605" style="fill:blue" /><rect y="-15.1260504201681" x="223.803680981595" width="2.94478527607362" height="15.1260504201681" style="fill:blue" /><rect y="-28.5714285714286" x="226.748466257669" width="2.94478527607362" height="28.5714285714286" style="fill:blue" /><rect y="-33.6134453781513" x="229.693251533742" width="2.94478527607362" height="33.6134453781513" style="fill:blue" /><rect y="-33.6134453781513" x="232.638036809816" width="2.94478527607362" height="33.6134453781513" style="fill:blue" /><rect y="-26.890756302521" x="235.58282208589" width="2.94478527607362" height="26.890756302521" style="fill:blue" /><text transform="rotate(90)" y="-230.055214723926" x="7.5" font-size="14">2009-05-23</text><rect y="-28.5714285714286" x="238.527607361963" width="2.94478527607362" height="28.5714285714286" style="fill:blue" /><rect y="-36.9747899159664" x="241.472392638037" width="2.94478527607362" height="36.9747899159664" style="fill:blue" /><rect y="-40.3361344537815" x="244.41717791411" width="2.94478527607362" height="40.3361344537815" style="fill:blue" /><rect y="-28.5714285714286" x="247.361963190184" width="2.94478527607362" height="28.5714285714286" style="fill:blue" /><rect y="-57.1428571428571" x="250.306748466258" width="2.94478527607362" height="57.1428571428571" style="fill:blue" /><rect y="-58.8235294117647" x="253.251533742331" width="2.94478527607362" height="58.8235294117647" style="fill:blue" /><rect y="-35.2941176470588" x="256.196319018405" width="2.94478527607362" height="35.2941176470588" style="fill:blue" /><rect y="-33.6134453781513" x="259.141104294479" width="2.94478527607362" height="33.6134453781513" style="fill:blue" /><text transform="rotate(90)" y="-253.613496932515" x="7.5" font-size="14">2009-05-31</text><rect y="-36.9747899159664" x="262.085889570552" width="2.94478527607362" height="36.9747899159664" style="fill:blue" /><rect y="-42.0168067226891" x="265.030674846626" width="2.94478527607362" height="42.0168067226891" style="fill:blue" /><rect y="-47.0588235294118" x="267.975460122699" width="2.94478527607362" height="47.0588235294118" style="fill:blue" /><rect y="-21.8487394957983" x="270.920245398773" width="2.94478527607362" height="21.8487394957983" style="fill:blue" /><rect y="-18.4873949579832" x="273.865030674847" width="2.94478527607362" height="18.4873949579832" style="fill:blue" /><rect y="-18.4873949579832" x="276.80981595092" width="2.94478527607362" height="18.4873949579832" style="fill:blue" /><rect y="-18.4873949579832" x="279.754601226994" width="2.94478527607362" height="18.4873949579832" style="fill:blue" /><rect y="-15.1260504201681" x="282.699386503067" width="2.94478527607362" height="15.1260504201681" style="fill:blue" /><text transform="rotate(90)" y="-277.171779141104" x="7.5" font-size="14">2009-06-08</text><rect y="-53.781512605042" x="285.644171779141" width="2.94478527607362" height="53.781512605042" style="fill:blue" /><rect y="-26.890756302521" x="288.588957055215" width="2.94478527607362" height="26.890756302521" style="fill:blue" /><rect y="-15.1260504201681" x="291.533742331288" width="2.94478527607362" height="15.1260504201681" style="fill:blue" /><rect y="-11.7647058823529" x="294.478527607362" width="2.94478527607362" height="11.7647058823529" style="fill:blue" /><rect y="-11.7647058823529" x="297.423312883436" width="2.94478527607362" height="11.7647058823529" style="fill:blue" /><rect y="-16.8067226890756" x="300.368098159509" width="2.94478527607362" height="16.8067226890756" style="fill:blue" /><rect y="-40.3361344537815" x="303.312883435583" width="2.94478527607362" height="40.3361344537815" style="fill:blue" /><rect y="-57.1428571428571" x="306.257668711656" width="2.94478527607362" height="57.1428571428571" style="fill:blue" /><text transform="rotate(90)" y="-300.730061349693" x="7.5" font-size="14">2009-06-16</text><rect y="-40.3361344537815" x="309.20245398773" width="2.94478527607362" height="40.3361344537815" style="fill:blue" /><rect y="-31.9327731092437" x="312.147239263804" width="2.94478527607362" height="31.9327731092437" style="fill:blue" /><rect y="-36.9747899159664" x="315.092024539877" width="2.94478527607362" height="36.9747899159664" style="fill:blue" /><rect y="-78.9915966386555" x="318.036809815951" width="2.94478527607362" height="78.9915966386555" style="fill:blue" /><rect y="-35.2941176470588" x="320.981595092025" width="2.94478527607362" height="35.2941176470588" style="fill:blue" /><rect y="-50.4201680672269" x="323.926380368098" width="2.94478527607362" height="50.4201680672269" style="fill:blue" /><rect y="-30.2521008403361" x="326.871165644172" width="2.94478527607362" height="30.2521008403361" style="fill:blue" /><rect y="-30.2521008403361" x="329.815950920245" width="2.94478527607362" height="30.2521008403361" style="fill:blue" /><text transform="rotate(90)" y="-324.288343558282" x="7.5" font-size="14">2009-06-24</text><rect y="-28.5714285714286" x="332.760736196319" width="2.94478527607362" height="28.5714285714286" style="fill:blue" /><rect y="-10.0840336134454" x="335.705521472393" width="2.94478527607362" height="10.0840336134454" style="fill:blue" /><rect y="-25.2100840336134" x="338.650306748466" width="2.94478527607362" height="25.2100840336134" style="fill:blue" /><rect y="-16.8067226890756" x="341.59509202454" width="2.94478527607362" height="16.8067226890756" style="fill:blue" /><rect y="-40.3361344537815" x="344.539877300613" width="2.94478527607362" height="40.3361344537815" style="fill:blue" /><rect y="-35.2941176470588" x="347.484662576687" width="2.94478527607362" height="35.2941176470588" style="fill:blue" /><rect y="-35.2941176470588" x="350.429447852761" width="2.94478527607362" height="35.2941176470588" style="fill:blue" /><rect y="-16.8067226890756" x="353.374233128834" width="2.94478527607362" height="16.8067226890756" style="fill:blue" /><text transform="rotate(90)" y="-347.846625766871" x="7.5" font-size="14">2009-07-02</text><rect y="-15.1260504201681" x="356.319018404908" width="2.94478527607362" height="15.1260504201681" style="fill:blue" /><rect y="-18.4873949579832" x="359.263803680982" width="2.94478527607362" height="18.4873949579832" style="fill:blue" /><rect y="-30.2521008403361" x="362.208588957055" width="2.94478527607362" height="30.2521008403361" style="fill:blue" /><rect y="-36.9747899159664" x="365.153374233129" width="2.94478527607362" height="36.9747899159664" style="fill:blue" /><rect y="-40.3361344537815" x="368.098159509202" width="2.94478527607362" height="40.3361344537815" style="fill:blue" /><rect y="-55.4621848739496" x="371.042944785276" width="2.94478527607362" height="55.4621848739496" style="fill:blue" /><rect y="-62.1848739495798" x="373.98773006135" width="2.94478527607362" height="62.1848739495798" style="fill:blue" /><rect y="-50.4201680672269" x="376.932515337423" width="2.94478527607362" height="50.4201680672269" style="fill:blue" /><text transform="rotate(90)" y="-371.40490797546" x="7.5" font-size="14">2009-07-10</text><rect y="-26.890756302521" x="379.877300613497" width="2.94478527607362" height="26.890756302521" style="fill:blue" /><rect y="-25.2100840336134" x="382.822085889571" width="2.94478527607362" height="25.2100840336134" style="fill:blue" /><rect y="-25.2100840336134" x="385.766871165644" width="2.94478527607362" height="25.2100840336134" style="fill:blue" /><rect y="-38.6554621848739" x="388.711656441718" width="2.94478527607362" height="38.6554621848739" style="fill:blue" /><rect y="-30.2521008403361" x="391.656441717791" width="2.94478527607362" height="30.2521008403361" style="fill:blue" /><rect y="-35.2941176470588" x="394.601226993865" width="2.94478527607362" height="35.2941176470588" style="fill:blue" /><rect y="-36.9747899159664" x="397.546012269939" width="2.94478527607362" height="36.9747899159664" style="fill:blue" /><rect y="-45.3781512605042" x="400.490797546012" width="2.94478527607362" height="45.3781512605042" style="fill:blue" /><text transform="rotate(90)" y="-394.963190184049" x="7.5" font-size="14">2009-07-18</text><rect y="-48.7394957983193" x="403.435582822086" width="2.94478527607362" height="48.7394957983193" style="fill:blue" /><rect y="-42.0168067226891" x="406.380368098159" width="2.94478527607362" height="42.0168067226891" style="fill:blue" /><rect y="-35.2941176470588" x="409.325153374233" width="2.94478527607362" height="35.2941176470588" style="fill:blue" /><rect y="-33.6134453781513" x="412.269938650307" width="2.94478527607362" height="33.6134453781513" style="fill:blue" /><rect y="-258.823529411765" x="415.21472392638" width="2.94478527607362" height="258.823529411765" style="fill:blue" /><rect y="-60.5042016806723" x="418.159509202454" width="2.94478527607362" height="60.5042016806723" style="fill:blue" /><rect y="-30.2521008403361" x="421.104294478528" width="2.94478527607362" height="30.2521008403361" style="fill:blue" /><rect y="-82.3529411764706" x="424.049079754601" width="2.94478527607362" height="82.3529411764706" style="fill:blue" /><text transform="rotate(90)" y="-418.521472392638" x="7.5" font-size="14">2009-07-26</text><rect y="-236.974789915966" x="426.993865030675" width="2.94478527607362" height="236.974789915966" style="fill:blue" /><rect y="-205.042016806723" x="429.938650306748" width="2.94478527607362" height="205.042016806723" style="fill:blue" /><rect y="-149.579831932773" x="432.883435582822" width="2.94478527607362" height="149.579831932773" style="fill:blue" /><rect y="-92.436974789916" x="435.828220858896" width="2.94478527607362" height="92.436974789916" style="fill:blue" /><rect y="-94.1176470588235" x="438.773006134969" width="2.94478527607362" height="94.1176470588235" style="fill:blue" /><rect y="-57.1428571428571" x="441.717791411043" width="2.94478527607362" height="57.1428571428571" style="fill:blue" /><rect y="-82.3529411764706" x="444.662576687117" width="2.94478527607362" height="82.3529411764706" style="fill:blue" /><rect y="-58.8235294117647" x="447.60736196319" width="2.94478527607362" height="58.8235294117647" style="fill:blue" /><text transform="rotate(90)" y="-442.079754601227" x="7.5" font-size="14">2009-08-03</text><rect y="-84.0336134453782" x="450.552147239264" width="2.94478527607362" height="84.0336134453782" style="fill:blue" /><rect y="-104.201680672269" x="453.496932515337" width="2.94478527607362" height="104.201680672269" style="fill:blue" /><rect y="-85.7142857142857" x="456.441717791411" width="2.94478527607362" height="85.7142857142857" style="fill:blue" /><rect y="-400" x="459.386503067485" width="2.94478527607362" height="400" style="fill:blue" /><rect y="-142.857142857143" x="462.331288343558" width="2.94478527607362" height="142.857142857143" style="fill:blue" /><rect y="-146.218487394958" x="465.276073619632" width="2.94478527607362" height="146.218487394958" style="fill:blue" /><rect y="-114.285714285714" x="468.220858895705" width="2.94478527607362" height="114.285714285714" style="fill:blue" /><rect y="-94.1176470588235" x="471.165644171779" width="2.94478527607362" height="94.1176470588235" style="fill:blue" /><text transform="rotate(90)" y="-465.638036809816" x="7.5" font-size="14">2009-08-11</text><rect y="-107.563025210084" x="474.110429447853" width="2.94478527607362" height="107.563025210084" style="fill:blue" /><rect y="-117.647058823529" x="477.055214723926" width="2.94478527607362" height="117.647058823529" style="fill:blue" /><line x1="-3.75" x2="3.75" y1="0" y2="0" style="stroke:black; stroke-width: 1" /><text x="-42.5" y="7" font-size="14">0</text><line x1="-3.75" x2="3.75" y1="-33.6134453781513" y2="-33.6134453781513" style="stroke:black; stroke-width: 1" /><text x="-42.5" y="-26.6134453781513" font-size="14">20</text><line x1="-3.75" x2="3.75" y1="-67.2268907563025" y2="-67.2268907563025" style="stroke:black; stroke-width: 1" /><text x="-42.5" y="-60.2268907563025" font-size="14">40</text><line x1="-3.75" x2="3.75" y1="-100.840336134454" y2="-100.840336134454" style="stroke:black; stroke-width: 1" /><text x="-42.5" y="-93.8403361344538" font-size="14">60</text><line x1="-3.75" x2="3.75" y1="-134.453781512605" y2="-134.453781512605" style="stroke:black; stroke-width: 1" /><text x="-42.5" y="-127.453781512605" font-size="14">80</text><line x1="-3.75" x2="3.75" y1="-168.067226890756" y2="-168.067226890756" style="stroke:black; stroke-width: 1" /><text x="-42.5" y="-161.067226890756" font-size="14">100</text><line x1="-3.75" x2="3.75" y1="-201.680672268908" y2="-201.680672268908" style="stroke:black; stroke-width: 1" /><text x="-42.5" y="-194.680672268908" font-size="14">120</text><line x1="-3.75" x2="3.75" y1="-235.294117647059" y2="-235.294117647059" style="stroke:black; stroke-width: 1" /><text x="-42.5" y="-228.294117647059" font-size="14">140</text><line x1="-3.75" x2="3.75" y1="-268.90756302521" y2="-268.90756302521" style="stroke:black; stroke-width: 1" /><text x="-42.5" y="-261.90756302521" font-size="14">160</text><line x1="-3.75" x2="3.75" y1="-302.521008403361" y2="-302.521008403361" style="stroke:black; stroke-width: 1" /><text x="-42.5" y="-295.521008403361" font-size="14">180</text><line x1="-3.75" x2="3.75" y1="-336.134453781513" y2="-336.134453781513" style="stroke:black; stroke-width: 1" /><text x="-42.5" y="-329.134453781513" font-size="14">200</text><line x1="-3.75" x2="3.75" y1="-369.747899159664" y2="-369.747899159664" style="stroke:black; stroke-width: 1" /><text x="-42.5" y="-362.747899159664" font-size="14">220</text><line x1="0" y1="0" x2="480" y2="0" style="stroke:black; stroke-width: 2" /><line x1="0" y1="0" x2="0" y2="-400" style="stroke:black; stroke-width: 2" /></g></svg>
